<svg width="24" height="25" viewBox="0 0 24 25" fill="none" xmlns="http://www.w3.org/2000/svg">
<path d="M6.69995 9.76L11.9999 12.83L17.2599 9.78" stroke="#2853AF" stroke-width="1.5" stroke-linecap="round" stroke-linejoin="round"/>
<path d="M12 18.27V12.82" stroke="#2853AF" stroke-width="1.5" stroke-linecap="round" stroke-linejoin="round"/>
<path d="M10.76 6.79L7.56 8.57C6.84 8.97 6.23999 9.98 6.23999 10.81V14.2C6.23999 15.03 6.83 16.04 7.56 16.44L10.76 18.22C11.44 18.6 12.56 18.6 13.25 18.22L16.45 16.44C17.17 16.04 17.77 15.03 17.77 14.2V10.8C17.77 9.97 17.18 8.96 16.45 8.56L13.25 6.78C12.56 6.4 11.44 6.4 10.76 6.79Z" stroke="#2853AF" stroke-width="1.5" stroke-linecap="round" stroke-linejoin="round"/>
<path d="M22 15.5C22 19.37 18.87 22.5 15 22.5L16.05 20.75" stroke="#2853AF" stroke-width="1.5" stroke-linecap="round" stroke-linejoin="round"/>
<path d="M2 9.5C2 5.63 5.13 2.5 9 2.5L7.95001 4.25" stroke="#2853AF" stroke-width="1.5" stroke-linecap="round" stroke-linejoin="round"/>
</svg>
