<svg width="24" height="24" viewBox="0 0 24 24" fill="none" xmlns="http://www.w3.org/2000/svg">
<path fill-rule="evenodd" clip-rule="evenodd" d="M16.28 11.47C16.4205 11.6106 16.4993 11.8012 16.4993 12C16.4993 12.1987 16.4205 12.3894 16.28 12.53L8.78 20.03C8.63782 20.1625 8.44978 20.2346 8.25548 20.2312C8.06118 20.2277 7.87579 20.149 7.73838 20.0116C7.60096 19.8742 7.52225 19.6888 7.51882 19.4945C7.5154 19.3002 7.58752 19.1122 7.72 18.97L14.69 12L7.72 5.03C7.58752 4.88782 7.5154 4.69978 7.51882 4.50548C7.52225 4.31118 7.60096 4.12579 7.73838 3.98838C7.87579 3.85096 8.06118 3.77225 8.25548 3.76882C8.44978 3.7654 8.63782 3.83752 8.78 3.97L16.28 11.47Z" fill="#171725"/>
</svg>
