<svg width="18" height="19" viewBox="0 0 18 19" fill="none" xmlns="http://www.w3.org/2000/svg">
<path d="M14.6247 7.59165V7.00415C14.6247 3.77995 12.1047 1.1666 8.99969 1.1666C5.89466 1.1666 3.37464 3.77995 3.37464 7.00415V7.59165C3.37564 8.29296 3.17551 8.97983 2.79797 9.57084L1.87463 11.0084C1.03212 12.3209 1.67546 14.105 3.14131 14.5201C6.97143 15.6059 11.028 15.6059 14.8581 14.5201C16.3239 14.105 16.9673 12.3209 16.1248 11.0092L15.2014 9.57167C14.8236 8.98076 14.6232 8.29387 14.6239 7.59249L14.6247 7.59165Z" stroke="#171725" stroke-width="1.25001"/>
<path d="M5.24969 15.3333C5.79553 16.79 7.26805 17.8333 8.99973 17.8333C10.7314 17.8333 12.2039 16.79 12.7498 15.3333" stroke="#171725" stroke-width="1.25001" stroke-linecap="round"/>
</svg>
