<?xml version="1.0" standalone="no"?>
<!DOCTYPE svg PUBLIC "-//W3C//DTD SVG 20010904//EN"
 "http://www.w3.org/TR/2001/REC-SVG-20010904/DTD/svg10.dtd">
<svg version="1.0" xmlns="http://www.w3.org/2000/svg"
 width="600.000000pt" height="600.000000pt" viewBox="0 0 600.000000 600.000000"
 preserveAspectRatio="xMidYMid meet">

<g transform="translate(0.000000,600.000000) scale(0.100000,-0.100000)"
fill="#2853AF" stroke="none">
<path d="M2923 4304 c-45 -16 -97 -63 -181 -162 -62 -73 -71 -75 -188 -36
-147 48 -228 42 -302 -22 -51 -43 -78 -108 -91 -221 -18 -148 -13 -143 -169
-184 -111 -29 -169 -68 -205 -139 -40 -77 -34 -137 27 -268 25 -54 46 -110 46
-125 0 -19 -21 -49 -70 -104 -90 -100 -115 -149 -115 -229 0 -104 41 -153 220
-264 34 -21 58 -43 62 -58 3 -12 -2 -70 -12 -127 -23 -139 -10 -209 49 -273
47 -53 91 -66 241 -72 77 -3 145 -8 151 -12 7 -4 30 -52 53 -106 68 -161 130
-216 246 -216 67 0 96 12 221 94 42 28 85 50 94 50 10 0 58 -27 107 -59 143
-95 218 -110 313 -61 55 28 94 81 141 192 23 54 46 102 53 106 6 4 74 9 151
12 150 6 194 19 241 72 59 64 71 133 49 272 -10 57 -15 115 -12 128 4 15 28
37 62 58 179 111 220 160 220 264 0 79 -25 128 -115 229 -52 58 -70 85 -70
106 0 16 20 72 46 123 59 124 67 184 31 260 -36 81 -87 114 -232 153 -86 23
-115 36 -124 54 -5 9 -14 61 -21 116 -14 122 -40 185 -93 231 -74 63 -154 68
-301 20 -117 -39 -126 -37 -188 36 -142 167 -217 203 -335 162z m124 -110 c19
-10 66 -54 105 -101 39 -47 85 -93 102 -104 46 -28 122 -25 235 12 103 33 148
34 183 2 35 -31 47 -69 58 -170 19 -173 51 -209 228 -256 110 -30 139 -47 158
-94 19 -45 13 -73 -43 -189 -51 -105 -59 -165 -29 -222 9 -18 48 -67 86 -109
86 -93 101 -134 74 -190 -13 -26 -39 -50 -84 -79 -199 -127 -210 -150 -175
-352 18 -104 8 -151 -38 -186 -25 -18 -47 -22 -171 -26 -192 -7 -206 -16 -276
-181 -43 -101 -66 -130 -114 -149 -40 -15 -84 1 -171 61 -152 104 -193 105
-347 1 -91 -61 -135 -77 -174 -62 -48 19 -71 48 -114 149 -70 165 -84 174
-276 181 -124 4 -146 8 -171 26 -46 35 -56 82 -38 186 35 202 24 225 -175 352
-45 29 -71 53 -84 79 -27 56 -12 97 74 190 38 42 77 91 86 109 30 57 22 117
-30 224 -57 119 -64 157 -36 202 23 37 53 52 166 82 162 43 195 84 214 253 11
101 23 139 58 170 34 31 80 31 186 -2 115 -36 187 -40 232 -12 17 11 63 57
102 103 64 77 115 117 150 118 8 0 30 -7 49 -16z"/>
<path d="M2615 3473 c-77 -40 -124 -113 -132 -203 -20 -219 213 -352 369 -212
23 20 49 55 59 77 21 46 25 148 8 206 -16 52 -64 108 -113 130 -51 23 -149 24
-191 2z m134 -98 c36 -18 61 -71 61 -128 0 -84 -37 -137 -98 -137 -48 0 -71
16 -93 63 -33 74 -19 152 36 195 32 26 55 27 94 7z"/>
<path d="M3288 3478 c-9 -7 -161 -211 -337 -452 -341 -467 -351 -483 -295
-508 21 -10 31 -9 50 2 13 8 168 212 344 453 333 456 348 482 301 507 -26 13
-44 13 -63 -2z"/>
<path d="M3216 2985 c-91 -32 -145 -119 -146 -230 0 -152 86 -245 225 -245
120 0 210 89 222 220 17 180 -140 313 -301 255z m126 -106 c25 -14 57 -84 58
-127 0 -45 -22 -95 -55 -120 -33 -26 -55 -27 -96 -6 -70 36 -81 182 -19 244
22 22 78 27 112 9z"/>
</g>
</svg>
