<svg width="19" height="21" viewBox="0 0 19 21" fill="none" xmlns="http://www.w3.org/2000/svg">
<path fill-rule="evenodd" clip-rule="evenodd" d="M13.0337 0.5C16.1777 0.5 18.2897 2.653 18.2897 5.857V15.053C18.2897 18.285 16.2427 20.387 13.0747 20.407L5.38169 20.41C2.23769 20.41 0.124695 18.257 0.124695 15.053V5.857C0.124695 2.624 2.17169 0.523 5.33969 0.504L13.0327 0.5H13.0337ZM13.0337 2L5.34469 2.004C3.01669 2.018 1.62469 3.458 1.62469 5.857V15.053C1.62469 17.468 3.02969 18.91 5.38069 18.91L13.0697 18.907C15.3977 18.893 16.7897 17.451 16.7897 15.053V5.857C16.7897 3.442 15.3857 2 13.0337 2ZM12.8408 13.9737C13.2548 13.9737 13.5908 14.3097 13.5908 14.7237C13.5908 15.1377 13.2548 15.4737 12.8408 15.4737H5.62079C5.20679 15.4737 4.87079 15.1377 4.87079 14.7237C4.87079 14.3097 5.20679 13.9737 5.62079 13.9737H12.8408ZM12.8408 9.7872C13.2548 9.7872 13.5908 10.1232 13.5908 10.5372C13.5908 10.9512 13.2548 11.2872 12.8408 11.2872H5.62079C5.20679 11.2872 4.87079 10.9512 4.87079 10.5372C4.87079 10.1232 5.20679 9.7872 5.62079 9.7872H12.8408ZM8.37549 5.6104C8.78949 5.6104 9.12549 5.9464 9.12549 6.3604C9.12549 6.7744 8.78949 7.1104 8.37549 7.1104H5.62049C5.20649 7.1104 4.87049 6.7744 4.87049 6.3604C4.87049 5.9464 5.20649 5.6104 5.62049 5.6104H8.37549Z" fill="#78828A"/>
</svg>
