<svg width="26" height="26" viewBox="0 0 26 26" fill="none" xmlns="http://www.w3.org/2000/svg">
<path d="M19.2915 14.5728C18.854 14.9999 18.604 15.6145 18.6665 16.2707C18.7603 17.3957 19.7915 18.2186 20.9165 18.2186H22.8957V19.4582C22.8957 21.6145 21.1353 23.3749 18.979 23.3749H7.02067C4.86442 23.3749 3.104 21.6145 3.104 19.4582V12.4478C3.104 10.2916 4.86442 8.53113 7.02067 8.53113H18.979C21.1353 8.53113 22.8957 10.2916 22.8957 12.4478V13.9478H20.7915C20.2082 13.9478 19.6769 14.1769 19.2915 14.5728Z" stroke="#171725" stroke-width="1.5625" stroke-linecap="round" stroke-linejoin="round"/>
<path d="M3.104 13.3854V8.625C3.104 7.38541 3.86442 6.2812 5.02067 5.8437L13.2915 2.7187C14.5832 2.22912 15.9686 3.18748 15.9686 4.5729V8.53122" stroke="#171725" stroke-width="1.5625" stroke-linecap="round" stroke-linejoin="round"/>
<path d="M23.9986 15.0106V17.1565C23.9986 17.7294 23.5403 18.1981 22.9569 18.2189H20.9153C19.7903 18.2189 18.759 17.396 18.6653 16.271C18.6028 15.6148 18.8528 15.0002 19.2903 14.5731C19.6757 14.1773 20.2069 13.9481 20.7903 13.9481H22.9569C23.5403 13.969 23.9986 14.4377 23.9986 15.0106Z" stroke="#171725" stroke-width="1.5625" stroke-linecap="round" stroke-linejoin="round"/>
<path d="M7.7915 12.9584H15.0832" stroke="#171725" stroke-width="1.5625" stroke-linecap="round" stroke-linejoin="round"/>
</svg>
