<svg width="24" height="25" viewBox="0 0 24 25" fill="none" xmlns="http://www.w3.org/2000/svg">
<path d="M20.2332 17.1866C21.1817 15.6412 21.6826 13.8629 21.6801 12.0496L21.6801 12.0494L21.6801 12.0493C21.6826 10.236 21.1817 8.4576 20.2331 6.91221L20.2277 6.90377C19.3477 5.46943 18.1145 4.28474 16.6461 3.46288C15.1776 2.64103 13.523 2.20948 11.8402 2.20947C10.1574 2.20947 8.50272 2.641 7.03426 3.46284C5.56581 4.28468 4.33264 5.46937 3.4526 6.90371L3.44713 6.91225C2.50091 8.4587 2.00019 10.2364 2.00018 12.0494C2.00018 13.8624 2.50089 15.6401 3.44709 17.1866L3.45265 17.1953C4.3327 18.6296 5.56586 19.8142 7.0343 20.6361C8.50275 21.4579 10.1574 21.8894 11.8402 21.8894C13.523 21.8894 15.1776 21.4579 16.6461 20.636C18.1145 19.8142 19.3476 18.6295 20.2277 17.1952L20.2332 17.1866ZM13.0979 20.203C12.9104 20.3839 12.6946 20.5329 12.459 20.6442C12.2656 20.7361 12.0542 20.7838 11.8401 20.7838C11.6261 20.7838 11.4147 20.7361 11.2213 20.6442C10.773 20.4152 10.3892 20.0775 10.105 19.6619C9.52473 18.8234 9.09468 17.8903 8.8341 16.9044C9.8351 16.8428 10.8371 16.8114 11.8402 16.8103C12.8428 16.8103 13.8448 16.8416 14.8464 16.9044C14.7021 17.4113 14.522 17.9073 14.3073 18.3886C14.0245 19.0655 13.6139 19.6816 13.0979 20.203V20.203ZM3.12504 12.6023H7.09397C7.11981 13.7097 7.23985 14.813 7.45279 15.9001C6.36784 15.9956 5.28566 16.1267 4.20625 16.2935C3.57417 15.1595 3.20469 13.8981 3.12504 12.6023ZM4.20625 7.80538C5.28523 7.97258 6.36779 8.10374 7.45393 8.19885C7.24057 9.2859 7.12026 10.3892 7.09432 11.4966H3.12504C3.20468 10.2008 3.57416 8.93939 4.20624 7.80538H4.20625ZM10.5824 3.8959C10.7699 3.71497 10.9857 3.56592 11.2213 3.45462C11.4147 3.36274 11.6261 3.31507 11.8401 3.31507C12.0542 3.31507 12.2656 3.36274 12.459 3.45462C12.9073 3.68363 13.2911 4.02135 13.5753 4.43692C14.1556 5.27548 14.5856 6.20856 14.8462 7.19447C13.8452 7.25607 12.8432 7.28745 11.8402 7.28861C10.8375 7.28859 9.83546 7.25721 8.83392 7.19446C8.97816 6.68755 9.15832 6.19155 9.37303 5.71025C9.65576 5.03334 10.0664 4.41731 10.5824 3.8959ZM20.5553 11.4966H16.5863C16.5605 10.3892 16.4404 9.28588 16.2275 8.19875C17.3125 8.10328 18.3947 7.97216 19.4741 7.80538C20.1061 8.93939 20.4756 10.2008 20.5553 11.4966ZM8.56478 15.8142C8.34857 14.7564 8.22645 13.6816 8.19987 12.6023H15.4805C15.4542 13.6816 15.3323 14.7564 15.1163 15.8142C14.0254 15.7426 12.9334 15.7061 11.8402 15.7047C10.7477 15.7047 9.65591 15.7412 8.56478 15.8142ZM15.1155 8.2847C15.3317 9.34248 15.4538 10.4173 15.4804 11.4966H8.19975C8.22609 10.4173 8.34798 9.34246 8.56399 8.28466C9.65485 8.35623 10.7469 8.39275 11.8402 8.39421C12.9326 8.39421 14.0244 8.35771 15.1155 8.28471V8.2847ZM16.586 12.6023H20.5553C20.4756 13.8981 20.1061 15.1595 19.474 16.2935C18.3951 16.1263 17.3125 15.9951 16.2264 15.9C16.4397 14.813 16.56 13.7097 16.586 12.6023ZM18.8111 6.78777C17.8678 6.92388 16.9216 7.03164 15.9725 7.11105C15.8019 6.47601 15.582 5.85528 15.3146 5.25455C15.0705 4.70173 14.7633 4.17897 14.3992 3.69667C16.1588 4.23633 17.703 5.31819 18.8111 6.78777ZM5.664 5.87329C6.67341 4.86293 7.91525 4.11559 9.28066 3.6968C9.25995 3.72363 9.23864 3.74928 9.21822 3.77666C8.5164 4.78697 8.00519 5.91706 7.7098 7.11122C6.76071 7.03084 5.81383 6.92302 4.86916 6.78777C5.1128 6.46506 5.37837 6.15951 5.664 5.87329ZM4.86915 17.3111C5.81253 17.175 6.75873 17.0672 7.70777 16.9878C7.87834 17.6229 8.09832 18.2436 8.36571 18.8443C8.60984 19.3971 8.91701 19.9199 9.28112 20.4022C7.52146 19.8625 5.9773 18.7807 4.86915 17.3111V17.3111ZM18.0163 18.2256C17.0069 19.236 15.765 19.9833 14.3996 20.4021C14.4203 20.3752 14.4416 20.3496 14.4621 20.3222C15.1639 19.3119 15.6751 18.1818 15.9705 16.9877C16.9196 17.068 17.8665 17.1759 18.8111 17.3111C18.5675 17.6338 18.3019 17.9394 18.0163 18.2256V18.2256Z" fill="#171725"/>
</svg>
