<svg width="19" height="22" viewBox="0 0 19 22" fill="none" xmlns="http://www.w3.org/2000/svg">
<path fill-rule="evenodd" clip-rule="evenodd" d="M7.3243 19.3155C7.8423 19.8925 8.5073 20.2095 9.1973 20.2095H9.1983C9.8913 20.2095 10.5593 19.8925 11.0783 19.3145C11.3563 19.0075 11.8303 18.9825 12.1373 19.2595C12.4453 19.5365 12.4703 20.0115 12.1933 20.3185C11.3853 21.2155 10.3223 21.7095 9.1983 21.7095H9.1963C8.0753 21.7085 7.0143 21.2145 6.2093 20.3175C5.9323 20.0105 5.9573 19.5355 6.2653 19.2595C6.5733 18.9815 7.0473 19.0065 7.3243 19.3155ZM9.2471 0.209473C13.6921 0.209473 16.6781 3.67147 16.6781 6.90447C16.6781 8.56747 17.1011 9.27247 17.5501 10.0205C17.9941 10.7585 18.4971 11.5965 18.4971 13.1805C18.1481 17.2275 13.9231 17.5575 9.2471 17.5575C4.5711 17.5575 0.345103 17.2275 8.95303e-05 13.2445C-0.00289711 11.5965 0.500103 10.7585 0.944103 10.0205L1.10085 9.75663C1.48678 9.09333 1.8161 8.37183 1.8161 6.90447C1.8161 3.67147 4.8021 0.209473 9.2471 0.209473ZM9.2471 1.70947C5.7521 1.70947 3.3161 4.44747 3.3161 6.90447C3.3161 8.98347 2.7391 9.94447 2.2291 10.7925C1.8201 11.4735 1.4971 12.0115 1.4971 13.1805C1.6641 15.0665 2.9091 16.0575 9.2471 16.0575C15.5501 16.0575 16.8341 15.0225 17.0001 13.1155C16.9971 12.0115 16.6741 11.4735 16.2651 10.7925C15.7551 9.94447 15.1781 8.98347 15.1781 6.90447C15.1781 4.44747 12.7421 1.70947 9.2471 1.70947Z" fill="#171725"/>
</svg>
