<svg width="10" height="10" viewBox="0 0 10 10" fill="none" xmlns="http://www.w3.org/2000/svg">
<path d="M4.87232 0.00874996L4.99982 0C5.22636 9.55362e-06 5.44524 0.0820533 5.61598 0.230959C5.78672 0.379864 5.89776 0.585558 5.92857 0.81L5.93732 0.9375V4.06125L9.06232 4.0625C9.28886 4.06251 9.50774 4.14455 9.67848 4.29346C9.84922 4.44236 9.96026 4.64806 9.99107 4.8725L9.99982 5C9.99981 5.22655 9.91776 5.44543 9.76886 5.61616C9.61995 5.7869 9.41426 5.89794 9.18982 5.92875L9.06232 5.9375L5.93732 5.93625V9.0625C5.93731 9.28905 5.85526 9.50793 5.70636 9.67866C5.55745 9.8494 5.35176 9.96044 5.12732 9.99125L4.99982 10C4.77327 9.99999 4.55439 9.91795 4.38365 9.76904C4.21292 9.62014 4.10188 9.41444 4.07107 9.19L4.06232 9.0625V5.93625L0.937317 5.9375C0.71077 5.93749 0.491889 5.85545 0.321154 5.70654C0.150418 5.55764 0.0393772 5.35194 0.00856686 5.1275L-0.000183105 5C-0.000173552 4.77345 0.0818702 4.55457 0.230776 4.38384C0.379681 4.2131 0.585375 4.10206 0.809817 4.07125L0.937317 4.0625L4.06232 4.06125V0.9375C4.06233 0.710953 4.14437 0.492072 4.29328 0.321337C4.44218 0.150601 4.64787 0.0395604 4.87232 0.00874996L4.99982 0L4.87232 0.00874996Z" fill="white"/>
</svg>
