<svg width="12" height="16" viewBox="0 0 12 16" fill="none" xmlns="http://www.w3.org/2000/svg">
<path fill-rule="evenodd" clip-rule="evenodd" d="M0.166817 6.76215C0.166817 3.49615 2.77015 0.833481 6.00015 0.833481C9.23015 0.833481 11.8335 3.49615 11.8335 6.76215C11.8335 8.33881 11.3841 10.0321 10.5895 11.4948C9.79615 12.9555 8.63748 14.2248 7.18682 14.9028C6.81536 15.0766 6.41026 15.1667 6.00015 15.1667C5.59004 15.1667 5.18494 15.0766 4.81348 14.9028C3.36282 14.2248 2.20415 12.9561 1.41082 11.4948C0.61615 10.0321 0.166817 8.33881 0.166817 6.76215ZM6.00015 1.83348C3.33882 1.83348 1.16682 4.03148 1.16682 6.76215C1.16682 8.16015 1.56882 9.69015 2.28948 11.0175C3.01082 12.3461 4.03082 13.4335 5.23615 13.9968C5.47516 14.1088 5.73587 14.1668 5.99982 14.1668C6.26376 14.1668 6.52447 14.1088 6.76348 13.9968C7.96948 13.4335 8.98948 12.3461 9.71082 11.0175C10.4315 9.69081 10.8335 8.16015 10.8335 6.76215C10.8335 4.03148 8.66148 1.83348 6.00015 1.83348ZM6.00015 5.16681C5.80317 5.16681 5.60811 5.20561 5.42612 5.28099C5.24414 5.35638 5.07878 5.46687 4.93949 5.60615C4.8002 5.74544 4.68971 5.9108 4.61433 6.09279C4.53895 6.27478 4.50015 6.46983 4.50015 6.66681C4.50015 6.8638 4.53895 7.05885 4.61433 7.24084C4.68971 7.42283 4.8002 7.58819 4.93949 7.72747C5.07878 7.86676 5.24414 7.97725 5.42612 8.05263C5.60811 8.12802 5.80317 8.16681 6.00015 8.16681C6.39797 8.16681 6.77951 8.00878 7.06081 7.72747C7.34211 7.44617 7.50015 7.06464 7.50015 6.66681C7.50015 6.26899 7.34211 5.88746 7.06081 5.60615C6.77951 5.32485 6.39797 5.16681 6.00015 5.16681ZM3.50015 6.66681C3.50015 6.00377 3.76354 5.36789 4.23238 4.89905C4.70122 4.43021 5.33711 4.16681 6.00015 4.16681C6.66319 4.16681 7.29908 4.43021 7.76792 4.89905C8.23676 5.36789 8.50015 6.00377 8.50015 6.66681C8.50015 7.32985 8.23676 7.96574 7.76792 8.43458C7.29908 8.90342 6.66319 9.16681 6.00015 9.16681C5.33711 9.16681 4.70122 8.90342 4.23238 8.43458C3.76354 7.96574 3.50015 7.32985 3.50015 6.66681Z" fill="#78828A"/>
</svg>
